<mxfile host="app.diagrams.net" modified="2023-04-15T19:52:28.900Z" agent="Mozilla/5.0 (Windows NT 10.0; Win64; x64) AppleWebKit/537.36 (KHTML, like Gecko) Chrome/111.0.0.0 Safari/537.36 OPR/97.0.0.0" etag="Fzdo9GwKLMcmqmsnSGnx" version="21.1.8" type="github">
  <diagram name="Página-1" id="nF9q8uSb3uDOoAcxjkld">
    <mxGraphModel dx="839" dy="1615" grid="1" gridSize="10" guides="1" tooltips="1" connect="1" arrows="1" fold="1" page="1" pageScale="1" pageWidth="827" pageHeight="1169" math="0" shadow="0">
      <root>
        <mxCell id="0" />
        <mxCell id="1" parent="0" />
        <mxCell id="91hnETYedU-Af16TGSah-1" value="Administrativo" style="shape=umlActor;verticalLabelPosition=bottom;verticalAlign=top;html=1;outlineConnect=0;" parent="1" vertex="1">
          <mxGeometry x="190" y="290" width="30" height="60" as="geometry" />
        </mxCell>
        <mxCell id="91hnETYedU-Af16TGSah-4" value="Herramienta web elecciones representantes AUNAR" style="whiteSpace=wrap;html=1;aspect=fixed;horizontal=1;verticalAlign=top;" parent="1" vertex="1">
          <mxGeometry x="305" y="-10" width="450" height="450" as="geometry" />
        </mxCell>
        <mxCell id="DrtQHZwlrbYFRYSP9bs7-12" value="" style="rounded=0;orthogonalLoop=1;jettySize=auto;html=1;" edge="1" parent="1" source="91hnETYedU-Af16TGSah-5" target="91hnETYedU-Af16TGSah-15">
          <mxGeometry relative="1" as="geometry" />
        </mxCell>
        <mxCell id="91hnETYedU-Af16TGSah-5" value="Votante" style="shape=umlActor;verticalLabelPosition=bottom;verticalAlign=top;html=1;outlineConnect=0;" parent="1" vertex="1">
          <mxGeometry x="190" y="80" width="30" height="60" as="geometry" />
        </mxCell>
        <mxCell id="91hnETYedU-Af16TGSah-14" value="Crear usuarios" style="ellipse;whiteSpace=wrap;html=1;" parent="1" vertex="1">
          <mxGeometry x="414" y="190" width="110" height="30" as="geometry" />
        </mxCell>
        <mxCell id="91hnETYedU-Af16TGSah-15" value="Votar" style="ellipse;whiteSpace=wrap;html=1;" parent="1" vertex="1">
          <mxGeometry x="450" y="80" width="50" height="30" as="geometry" />
        </mxCell>
        <mxCell id="91hnETYedU-Af16TGSah-16" value="Certificado de votacion" style="ellipse;whiteSpace=wrap;html=1;" parent="1" vertex="1">
          <mxGeometry x="320" y="140" width="70" height="50" as="geometry" />
        </mxCell>
        <mxCell id="91hnETYedU-Af16TGSah-19" value="Consulta de BD" style="ellipse;whiteSpace=wrap;html=1;" parent="1" vertex="1">
          <mxGeometry x="620" y="70" width="80" height="40" as="geometry" />
        </mxCell>
        <mxCell id="91hnETYedU-Af16TGSah-21" value="Anexar propuestas" style="ellipse;whiteSpace=wrap;html=1;" parent="1" vertex="1">
          <mxGeometry x="440" y="260" width="80" height="50" as="geometry" />
        </mxCell>
        <mxCell id="91hnETYedU-Af16TGSah-25" value="Roles" style="ellipse;whiteSpace=wrap;html=1;" parent="1" vertex="1">
          <mxGeometry x="610" y="200" width="50" height="40" as="geometry" />
        </mxCell>
        <mxCell id="91hnETYedU-Af16TGSah-28" value="iniciar Sesion" style="ellipse;whiteSpace=wrap;html=1;" parent="1" vertex="1">
          <mxGeometry x="460" y="30" width="100" height="30" as="geometry" />
        </mxCell>
        <mxCell id="91hnETYedU-Af16TGSah-29" value="Include" style="endArrow=classic;dashed=1;html=1;rounded=0;exitX=1;exitY=0.5;exitDx=0;exitDy=0;entryX=0.5;entryY=0;entryDx=0;entryDy=0;endFill=0;" parent="1" source="91hnETYedU-Af16TGSah-28" target="91hnETYedU-Af16TGSah-19" edge="1">
          <mxGeometry width="50" height="50" relative="1" as="geometry">
            <mxPoint x="540" y="210" as="sourcePoint" />
            <mxPoint x="590" y="160" as="targetPoint" />
            <Array as="points" />
          </mxGeometry>
        </mxCell>
        <mxCell id="w4VOvvT0TBt9DI_P5cnm-1" value="include" style="endArrow=classic;dashed=1;html=1;rounded=0;exitX=0.5;exitY=0;exitDx=0;exitDy=0;entryX=0.5;entryY=1;entryDx=0;entryDy=0;endFill=0;" parent="1" source="91hnETYedU-Af16TGSah-14" target="91hnETYedU-Af16TGSah-19" edge="1">
          <mxGeometry width="50" height="50" relative="1" as="geometry">
            <mxPoint x="595" y="100" as="sourcePoint" />
            <mxPoint x="625" y="150" as="targetPoint" />
            <Array as="points" />
          </mxGeometry>
        </mxCell>
        <mxCell id="DrtQHZwlrbYFRYSP9bs7-4" value="Include" style="endArrow=classic;dashed=1;html=1;rounded=0;exitX=1;exitY=0.5;exitDx=0;exitDy=0;entryX=0;entryY=0.5;entryDx=0;entryDy=0;endFill=0;" edge="1" parent="1" source="91hnETYedU-Af16TGSah-15" target="91hnETYedU-Af16TGSah-19">
          <mxGeometry width="50" height="50" relative="1" as="geometry">
            <mxPoint x="570" y="55" as="sourcePoint" />
            <mxPoint x="670" y="80" as="targetPoint" />
            <Array as="points" />
          </mxGeometry>
        </mxCell>
        <mxCell id="DrtQHZwlrbYFRYSP9bs7-5" value="Include" style="endArrow=classic;dashed=1;html=1;rounded=0;exitX=0.5;exitY=1;exitDx=0;exitDy=0;entryX=0.5;entryY=0;entryDx=0;entryDy=0;endFill=0;" edge="1" parent="1" source="91hnETYedU-Af16TGSah-15" target="91hnETYedU-Af16TGSah-16">
          <mxGeometry width="50" height="50" relative="1" as="geometry">
            <mxPoint x="510" y="105" as="sourcePoint" />
            <mxPoint x="630" y="100" as="targetPoint" />
            <Array as="points" />
          </mxGeometry>
        </mxCell>
        <mxCell id="DrtQHZwlrbYFRYSP9bs7-6" value="Extend" style="endArrow=classic;dashed=1;html=1;rounded=0;exitX=1;exitY=0.5;exitDx=0;exitDy=0;entryX=0;entryY=0.5;entryDx=0;entryDy=0;endFill=0;" edge="1" parent="1" source="91hnETYedU-Af16TGSah-14" target="91hnETYedU-Af16TGSah-25">
          <mxGeometry width="50" height="50" relative="1" as="geometry">
            <mxPoint x="479" y="200" as="sourcePoint" />
            <mxPoint x="670" y="120" as="targetPoint" />
            <Array as="points" />
          </mxGeometry>
        </mxCell>
        <mxCell id="DrtQHZwlrbYFRYSP9bs7-7" value="Include" style="endArrow=classic;dashed=1;html=1;rounded=0;exitX=1;exitY=0.5;exitDx=0;exitDy=0;entryX=0;entryY=0.5;entryDx=0;entryDy=0;endFill=0;" edge="1" parent="1" source="91hnETYedU-Af16TGSah-21">
          <mxGeometry width="50" height="50" relative="1" as="geometry">
            <mxPoint x="534" y="215" as="sourcePoint" />
            <mxPoint x="620" y="230" as="targetPoint" />
            <Array as="points" />
          </mxGeometry>
        </mxCell>
        <mxCell id="DrtQHZwlrbYFRYSP9bs7-8" value="Visualización Votación" style="ellipse;whiteSpace=wrap;html=1;" vertex="1" parent="1">
          <mxGeometry x="360" y="320" width="80" height="50" as="geometry" />
        </mxCell>
        <mxCell id="DrtQHZwlrbYFRYSP9bs7-9" value="Parciales" style="ellipse;whiteSpace=wrap;html=1;" vertex="1" parent="1">
          <mxGeometry x="430" y="400" width="70" height="30" as="geometry" />
        </mxCell>
        <mxCell id="DrtQHZwlrbYFRYSP9bs7-10" value="Certificado de votacion" style="ellipse;whiteSpace=wrap;html=1;" vertex="1" parent="1">
          <mxGeometry x="560" y="350" width="70" height="50" as="geometry" />
        </mxCell>
        <mxCell id="DrtQHZwlrbYFRYSP9bs7-13" value="" style="rounded=0;orthogonalLoop=1;jettySize=auto;html=1;entryX=0;entryY=0.5;entryDx=0;entryDy=0;" edge="1" parent="1" source="91hnETYedU-Af16TGSah-5" target="91hnETYedU-Af16TGSah-28">
          <mxGeometry relative="1" as="geometry">
            <mxPoint x="230" y="126" as="sourcePoint" />
            <mxPoint x="334" y="164" as="targetPoint" />
          </mxGeometry>
        </mxCell>
        <mxCell id="DrtQHZwlrbYFRYSP9bs7-14" value="" style="rounded=0;orthogonalLoop=1;jettySize=auto;html=1;entryX=0.5;entryY=0;entryDx=0;entryDy=0;" edge="1" parent="1" target="DrtQHZwlrbYFRYSP9bs7-8">
          <mxGeometry relative="1" as="geometry">
            <mxPoint x="220" y="120" as="sourcePoint" />
            <mxPoint x="334" y="164" as="targetPoint" />
          </mxGeometry>
        </mxCell>
        <mxCell id="DrtQHZwlrbYFRYSP9bs7-15" value="" style="rounded=0;orthogonalLoop=1;jettySize=auto;html=1;entryX=0;entryY=0.5;entryDx=0;entryDy=0;" edge="1" parent="1" target="91hnETYedU-Af16TGSah-14">
          <mxGeometry relative="1" as="geometry">
            <mxPoint x="220" y="310" as="sourcePoint" />
            <mxPoint x="410" y="330" as="targetPoint" />
          </mxGeometry>
        </mxCell>
        <mxCell id="DrtQHZwlrbYFRYSP9bs7-16" value="" style="rounded=0;orthogonalLoop=1;jettySize=auto;html=1;entryX=0;entryY=0.5;entryDx=0;entryDy=0;" edge="1" parent="1" source="91hnETYedU-Af16TGSah-1" target="DrtQHZwlrbYFRYSP9bs7-8">
          <mxGeometry relative="1" as="geometry">
            <mxPoint x="223" y="306" as="sourcePoint" />
            <mxPoint x="424" y="215" as="targetPoint" />
          </mxGeometry>
        </mxCell>
        <mxCell id="DrtQHZwlrbYFRYSP9bs7-17" value="Include" style="endArrow=classic;dashed=1;html=1;rounded=0;endFill=0;" edge="1" parent="1" source="DrtQHZwlrbYFRYSP9bs7-8" target="DrtQHZwlrbYFRYSP9bs7-9">
          <mxGeometry width="50" height="50" relative="1" as="geometry">
            <mxPoint x="530" y="295" as="sourcePoint" />
            <mxPoint x="630" y="240" as="targetPoint" />
            <Array as="points" />
          </mxGeometry>
        </mxCell>
      </root>
    </mxGraphModel>
  </diagram>
</mxfile>
